<svg xmlns="http://www.w3.org/2000/svg" viewBox="0 0 49.64 38.75">
  <defs>
    <style>
      .books-svg {
        fill: #44a9d3;
      }
    </style>
  </defs>
  <path class="books-svg" d="M46.1,11.71c-0.2-1.51-.23-4.11,1.17-5l0.07-.06c1.14-.37,1.94-0.88,1.32-1.58L31.75,0,4.38,3.8s-3.13.45-2.86,5.32c0.15,2.65,1,3.95,1.71,4.59L1,14.39C0.37,15.09,1.16,15.6,2.3,16L2.37,16c1.4,0.87,1.37,3.47,1.17,5-5,1.43-3.23,1.9-3.23,1.9l1.11,0.27c-0.78.7-1.55,2-1.4,4.55,0.28,4.87,2.85,5.21,2.85,5.21l17.91,5.82,27-6.55s1.8-.47-3.23-1.9c-0.2-1.51-.23-4.11,1.17-5l0.07-.06c1.14-.37,1.94-0.88,1.32-1.57L46,23.34c0.79-.47,2-1.71,2.14-4.92A5.69,5.69,0,0,0,47,14.16l2.32-.56s1.81-.46-3.22-1.89h0Zm-22.61-.06L28,10.71,43.4,7.55l2.29-.47a7.9,7.9,0,0,0-.58,4.35c0,0.27.06,0.51,0.09,0.7l-2.5.62L23.3,17.57ZM4,16.38l2.29,0.47,14.75,3,1.29,0.27,3.87,0.79,0.19,5.93-19.93-5-2-.49c0-.19.06-0.43,0.09-0.69A8,8,0,0,0,4,16.38H4ZM3.06,8.89a3.86,3.86,0,0,1,.67-2.71,1.22,1.22,0,0,1,.89-0.37,1.35,1.35,0,0,1,.23,0L16.64,9.67l5.88,1.92-0.19,6L5.83,12.93,5,12.69l-0.11,0c-0.07,0-1.7-.16-1.78-3.79h0ZM20.83,36.16L3.45,31.29l-0.11,0c-0.07,0-1.7-.15-1.78-3.78a3.84,3.84,0,0,1,.67-2.71,1.21,1.21,0,0,1,.89-0.37,1.31,1.31,0,0,1,.22,0h0L21,30.2ZM43.6,30c0,0.26.06,0.51,0.09,0.7L21.79,36.17,22,30.25l4.68-1,0.69,0.17,2.59-.84,11.95-2.46,2.29-.47A7.93,7.93,0,0,0,43.6,30h0ZM44.8,22l-0.12,0L43,22.46,27.31,26.86l-0.19-6,5.16-1.68,12.49-4.08a1.31,1.31,0,0,1,1.14.34,3.86,3.86,0,0,1,.67,2.71C46.49,21.82,44.86,22,44.8,22h0Zm0,0"/>
</svg>
