<?xml version="1.0" encoding="utf-8"?>
<!-- Svg Vector Icons : http://www.onlinewebfonts.com/icon -->
<!DOCTYPE svg PUBLIC "-//W3C//DTD SVG 1.1//EN" "http://www.w3.org/Graphics/SVG/1.1/DTD/svg11.dtd">
<svg version="1.1" xmlns="http://www.w3.org/2000/svg" xmlns:xlink="http://www.w3.org/1999/xlink" x="0px" y="0px" viewBox="0 0 1000 1000" enable-background="new 0 0 1000 1000" xml:space="preserve">
<metadata> Svg Vector Icons : http://www.onlinewebfonts.com/icon </metadata>
<g><path d="M499.4,990C228.5,990,9.7,770.7,10,498.9C10.3,225,236.2,4.4,510.7,10.1C775,15.7,993.2,233.6,990,506.3C986.8,774.5,767.2,991.1,499.4,990z M438.9,488.7c-1.6,0.6-2.4,0.9-3.3,1.2c-42.7,13.6-77.9,38-104.9,73.8c-25.9,34.3-39.9,73-41.8,116c-0.9,19.7,11.7,33.1,31.4,33.1c118.2,0,236.4-0.1,354.5,0.2c12.9,0,21.3-6.7,28.7-15.5c1.8-2.2,2.8-5.9,2.7-8.8c-0.4-10.4-0.5-21-2.3-31.2C689.3,576,642.7,521,565.4,491.9c-2.8-1.1-5.7-2-9.1-3.2c52.1-32.2,67.4-90.4,51.7-137.4c-15.9-47.6-60.4-79.8-110.4-79.8c-49.7,0-94.1,32-110.2,79.4C371.3,398.2,387,456.8,438.9,488.7z"/></g>
</svg>